<?xml version="1.0" standalone="no"?>
<!DOCTYPE svg PUBLIC "-//W3C//DTD SVG 20010904//EN"
 "http://www.w3.org/TR/2001/REC-SVG-20010904/DTD/svg10.dtd">
<svg version="1.0" xmlns="http://www.w3.org/2000/svg"
 width="512.000000pt" height="512.000000pt" viewBox="0 0 512.000000 512.000000"
 preserveAspectRatio="xMidYMid meet">
<metadata>
Created by potrace 1.14, written by Peter Selinger 2001-2017
</metadata>
<g transform="translate(0.000000,512.000000) scale(0.100000,-0.100000)"
fill="#000000" stroke="none">
<path d="M2379 5116 c-2 -2 -35 -6 -74 -9 -560 -48 -1133 -319 -1547 -730 -75
-75 -225 -249 -286 -332 -111 -153 -237 -391 -310 -590 -39 -104 -95 -290
-106 -352 -2 -15 -9 -53 -15 -83 -28 -154 -35 -238 -36 -445 0 -165 8 -320 20
-370 2 -11 6 -36 9 -55 3 -29 25 -140 41 -210 21 -90 88 -291 130 -385 263
-600 723 -1068 1307 -1331 195 -87 442 -162 633 -190 22 -3 51 -8 65 -10 117
-19 470 -26 600 -12 126 15 270 37 281 43 3 3 24 7 45 11 121 19 390 116 563
202 599 300 1057 817 1276 1443 44 124 38 104 75 259 28 118 35 154 45 232 26
199 28 535 4 683 -4 28 -10 68 -13 90 -3 22 -8 51 -11 65 -3 14 -10 47 -15 74
-16 77 -67 250 -106 354 -261 695 -831 1252 -1541 1506 -101 36 -306 92 -373
102 -19 3 -46 7 -60 9 -14 3 -41 7 -60 10 -19 3 -53 7 -75 11 -46 6 -460 16
-466 10z m501 -320 c598 -91 1117 -397 1477 -871 155 -204 268 -418 348 -660
35 -106 79 -295 90 -384 4 -30 9 -63 11 -75 10 -40 11 -381 3 -456 -31 -275
-86 -482 -189 -713 -256 -570 -747 -1017 -1338 -1216 -102 -35 -266 -77 -337
-87 -27 -3 -59 -8 -70 -10 -124 -25 -505 -25 -630 0 -11 2 -40 7 -65 10 -70 9
-242 53 -340 86 -663 224 -1197 757 -1419 1418 -30 88 -70 236 -76 282 -2 14
-9 49 -14 77 -18 89 -26 202 -26 353 0 209 13 329 59 535 63 291 233 636 436
888 59 74 203 224 275 288 117 103 337 251 481 323 185 91 445 176 621 202 26
3 57 8 68 11 11 2 52 6 90 9 39 4 71 7 73 9 10 10 384 -6 472 -19z"/>
<path d="M2410 4290 l0 -228 -42 -7 c-359 -54 -626 -184 -862 -420 -132 -132
-227 -269 -312 -450 -56 -120 -112 -314 -127 -440 l-4 -30 -230 -3 -231 -2 1
-150 0 -150 228 0 228 0 6 -47 c9 -69 33 -176 61 -266 96 -314 329 -614 624
-805 117 -76 347 -174 460 -197 33 -7 192 -35 196 -35 2 0 4 -103 4 -229 l0
-228 150 0 150 0 2 230 3 231 25 1 c14 1 43 5 65 9 22 5 51 10 65 12 239 43
530 197 723 382 261 250 398 519 462 905 l6 37 228 0 228 0 0 150 0 150 -228
0 c-126 0 -229 3 -230 8 -63 578 -467 1082 -1016 1268 -76 26 -180 51 -244 60
-22 3 -48 7 -57 9 -9 2 -20 4 -24 4 -4 1 -9 103 -10 229 l-3 227 -147 1 -148
2 0 -228z m0 -765 l0 -223 -82 -26 c-230 -74 -408 -255 -484 -491 l-22 -70
-226 -3 -226 -2 0 22 c0 13 4 39 10 58 5 19 11 46 14 60 2 14 14 54 26 90 107
313 321 560 604 699 99 49 242 97 321 107 21 3 41 7 43 9 17 17 22 -33 22
-230z m475 195 c330 -101 601 -323 744 -610 67 -133 120 -299 121 -373 l0 -27
-227 2 -226 3 -17 60 c-66 235 -272 440 -505 505 l-60 17 -3 228 -2 227 52 -5
c29 -4 85 -16 123 -27z m-1041 -1392 c15 -46 48 -117 74 -158 55 -89 166 -202
245 -248 62 -37 182 -88 219 -94 l23 -3 3 -229 2 -228 -44 5 c-62 8 -179 37
-190 48 -6 5 -17 9 -26 9 -29 0 -225 103 -296 155 -123 92 -238 214 -318 340
-78 122 -151 316 -163 433 l-5 52 224 0 225 0 27 -82z m1903 35 c-8 -66 -11
-77 -46 -181 -119 -355 -387 -629 -738 -756 -82 -29 -192 -56 -229 -56 l-24 0
2 227 3 226 60 17 c233 66 427 259 505 503 l22 67 225 0 225 0 -5 -47z"/>
</g>
</svg>
